<?xml version="1.0" encoding="UTF-8"?>
<!DOCTYPE svg PUBLIC "-//W3C//DTD SVG 1.1//EN" "http://www.w3.org/Graphics/SVG/1.1/DTD/svg11.dtd">
<!-- Creator: CorelDRAW -->
<svg xmlns="http://www.w3.org/2000/svg" xml:space="preserve" width="2480px" height="3508px" version="1.1" style="shape-rendering:geometricPrecision; text-rendering:geometricPrecision; image-rendering:optimizeQuality; fill-rule:evenodd; clip-rule:evenodd"
viewBox="0 0 2480 3507.43"
 xmlns:xlink="http://www.w3.org/1999/xlink"
 xmlns:xodm="http://www.corel.com/coreldraw/odm/2003">
 <defs>
  <style type="text/css">
   <![CDATA[
    .fil1 {fill:#1FA3B1}
    .fil0 {fill:#1F1B20}
   ]]>
  </style>
 </defs>
 <g id="Layer_x0020_1">
  <metadata id="CorelCorpID_0Corel-Layer"/>
  <path class="fil0" d="M535.6 1176.72l0 -298.46 769.69 0c193.38,0 334.08,15.92 421.7,47.32 88.07,31.44 158.04,87.33 210.65,167.71 52.68,80.8 79.23,172.58 79.23,276.24 0,131.8 -39.62,240.33 -119.24,326.01 -79.62,85.68 -198.42,139.55 -356.82,162 78.78,44.47 143.65,93.45 194.65,146.87 51.41,53.46 120.48,148.54 207.28,284.83l220.75 341.92 -436.89 0 -262.05 -382.72c-93.96,-135.9 -158.38,-221.56 -193.35,-257.06 -34.55,-35.07 -71.21,-59.58 -109.97,-72.63 -39.2,-13.07 -100.67,-19.59 -184.94,-19.59l-74.16 0 0 732 -366.53 0 1.06 -1013.44 632.97 -2.47c175.22,-0.67 287.39,-2.53 331.15,-16.8 43.34,-14.17 77.92,-39.16 102.39,-74.25 24.85,-35.07 37.06,-79.15 37.06,-131.78 0,-59.17 -16.42,-106.48 -48.87,-143.22 -32.42,-36.31 -78.37,-59.19 -137.35,-68.55 -29.89,-4.08 -118.77,-6.12 -266.64,-6.12l-285.24 0 -366.53 2.19z"/>
  <path class="fil1" d="M612.34 1106.34l0 -298.46 769.68 0c193.38,0 334.09,15.93 421.71,47.33 88.07,31.44 158.03,87.33 210.65,167.71 52.68,80.8 79.23,172.58 79.23,276.24 0,131.8 -39.63,240.33 -119.25,326.01 -79.62,85.68 -198.41,139.55 -356.81,162 78.78,44.47 143.65,93.44 194.65,146.87 51.41,53.46 120.47,148.54 207.27,284.82l220.76 341.92 -436.89 0 -262.06 -382.72c-93.96,-135.89 -158.38,-221.55 -193.34,-257.05 -34.55,-35.08 -71.21,-59.58 -109.98,-72.63 -39.19,-13.07 -100.67,-19.59 -184.93,-19.59l-74.16 0 0 731.99 -366.53 0 1.06 -1013.43 632.97 -2.47c175.22,-0.67 287.38,-2.53 331.14,-16.81 43.35,-14.16 77.92,-39.15 102.39,-74.24 24.86,-35.07 37.07,-79.15 37.07,-131.78 0,-59.17 -16.43,-106.48 -48.87,-143.22 -32.43,-36.31 -78.38,-59.19 -137.35,-68.55 -29.89,-4.08 -118.78,-6.12 -266.64,-6.12l-285.24 0 -366.53 2.18z"/>
 </g>
</svg>
